<svg preserveAspectRatio="none" width="100%" height="100%" overflow="visible" style="display: block;" viewBox="0 0 16 16" fill="none" xmlns="http://www.w3.org/2000/svg">
<g id="Icon">
<path id="Vector" d="M10 1.33333H6C5.63181 1.33333 5.33333 1.63181 5.33333 2V3.33333C5.33333 3.70152 5.63181 4 6 4H10C10.3682 4 10.6667 3.70152 10.6667 3.33333V2C10.6667 1.63181 10.3682 1.33333 10 1.33333Z" stroke="var(--stroke-0, #737373)" stroke-width="1.33333" stroke-linecap="round" stroke-linejoin="round"/>
<path id="Vector_2" d="M5.33333 2.66667H4C3.64638 2.66667 3.30724 2.80714 3.05719 3.05719C2.80714 3.30724 2.66667 3.64638 2.66667 4V13.3333C2.66667 13.687 2.80714 14.0261 3.05719 14.2761C3.30724 14.5262 3.64638 14.6667 4 14.6667H12C12.3536 14.6667 12.6928 14.5262 12.9428 14.2761C13.1929 14.0261 13.3333 13.687 13.3333 13.3333V12" stroke="var(--stroke-0, #737373)" stroke-width="1.33333" stroke-linecap="round" stroke-linejoin="round"/>
<path id="Vector_3" d="M10.6667 2.66667H12C12.3536 2.66667 12.6928 2.80714 12.9428 3.05719C13.1929 3.30724 13.3333 3.64638 13.3333 4V6.66667" stroke="var(--stroke-0, #737373)" stroke-width="1.33333" stroke-linecap="round" stroke-linejoin="round"/>
<path id="Vector_4" d="M14 9.33333H7.33333" stroke="var(--stroke-0, #737373)" stroke-width="1.33333" stroke-linecap="round" stroke-linejoin="round"/>
<path id="Vector_5" d="M10 6.66667L7.33333 9.33333L10 12" stroke="var(--stroke-0, #737373)" stroke-width="1.33333" stroke-linecap="round" stroke-linejoin="round"/>
</g>
</svg>
