<svg preserveAspectRatio="none" width="100%" height="100%" overflow="visible" style="display: block;" viewBox="0 0 16 16" fill="none" xmlns="http://www.w3.org/2000/svg">
<g id="Icon">
<path id="Vector" d="M14.6667 8H1.33333" stroke="var(--stroke-0, #737373)" stroke-width="1.33333" stroke-linecap="round" stroke-linejoin="round"/>
<path id="Vector_2" d="M3.63333 3.40667L1.33333 8V12C1.33333 12.3536 1.47381 12.6928 1.72386 12.9428C1.97391 13.1929 2.31304 13.3333 2.66667 13.3333H13.3333C13.687 13.3333 14.0261 13.1929 14.2761 12.9428C14.5262 12.6928 14.6667 12.3536 14.6667 12V8L12.3667 3.40667C12.2563 3.18452 12.0861 2.99758 11.8753 2.86685C11.6645 2.73613 11.4214 2.6668 11.1733 2.66667H4.82667C4.57861 2.6668 4.33551 2.73613 4.1247 2.86685C3.91388 2.99758 3.74372 3.18452 3.63333 3.40667Z" stroke="var(--stroke-0, #737373)" stroke-width="1.33333" stroke-linecap="round" stroke-linejoin="round"/>
<path id="Vector_3" d="M4 10.6667H4.00667" stroke="var(--stroke-0, #737373)" stroke-width="1.33333" stroke-linecap="round" stroke-linejoin="round"/>
<path id="Vector_4" d="M6.66667 10.6667H6.67333" stroke="var(--stroke-0, #737373)" stroke-width="1.33333" stroke-linecap="round" stroke-linejoin="round"/>
</g>
</svg>
