<svg preserveAspectRatio="none" width="100%" height="100%" overflow="visible" style="display: block;" viewBox="0 0 18 18" fill="none" xmlns="http://www.w3.org/2000/svg">
<g id="Icon" clip-path="url(#clip0_4_61)">
<path id="Vector" d="M9 7.5C8.60218 7.5 8.22064 7.65804 7.93934 7.93934C7.65804 8.22064 7.5 8.60218 7.5 9C7.5 9.765 7.425 10.8825 7.305 12" stroke="var(--stroke-0, white)" stroke-opacity="0.4" stroke-width="1.5" stroke-linecap="round" stroke-linejoin="round"/>
<path id="Vector_2" d="M10.5 9.84C10.5 11.625 10.5 14.625 9.75 16.5" stroke="var(--stroke-0, white)" stroke-opacity="0.4" stroke-width="1.5" stroke-linecap="round" stroke-linejoin="round"/>
<path id="Vector_3" d="M12.9675 15.765C13.0575 15.315 13.29 14.04 13.3425 13.5" stroke="var(--stroke-0, white)" stroke-opacity="0.4" stroke-width="1.5" stroke-linecap="round" stroke-linejoin="round"/>
<path id="Vector_4" d="M1.5 9C1.5 7.42588 1.99528 5.89166 2.91568 4.61467C3.83609 3.33768 5.13495 2.38266 6.62829 1.88488C8.12163 1.3871 9.73374 1.3718 11.2363 1.84115C12.7388 2.3105 14.0555 3.2407 15 4.5" stroke="var(--stroke-0, white)" stroke-opacity="0.4" stroke-width="1.5" stroke-linecap="round" stroke-linejoin="round"/>
<path id="Vector_5" d="M1.5 12H1.5075" stroke="var(--stroke-0, white)" stroke-opacity="0.4" stroke-width="1.5" stroke-linecap="round" stroke-linejoin="round"/>
<path id="Vector_6" d="M16.35 12C16.5 10.5 16.4482 7.9845 16.35 7.5" stroke="var(--stroke-0, white)" stroke-opacity="0.4" stroke-width="1.5" stroke-linecap="round" stroke-linejoin="round"/>
<path id="Vector_7" d="M3.75 14.625C4.125 13.5 4.5 11.25 4.5 9C4.49924 8.48915 4.58547 7.9819 4.755 7.5" stroke="var(--stroke-0, white)" stroke-opacity="0.4" stroke-width="1.5" stroke-linecap="round" stroke-linejoin="round"/>
<path id="Vector_8" d="M6.4875 16.5C6.645 16.005 6.825 15.51 6.915 15" stroke="var(--stroke-0, white)" stroke-opacity="0.4" stroke-width="1.5" stroke-linecap="round" stroke-linejoin="round"/>
<path id="Vector_9" d="M6.75 5.1C7.4343 4.70492 8.21056 4.49699 9.00072 4.49711C9.79088 4.49724 10.5671 4.70542 11.2513 5.10072C11.9354 5.49602 12.5034 6.0645 12.8982 6.74899C13.2929 7.43348 13.5005 8.20984 13.5 9V10.5" stroke="var(--stroke-0, white)" stroke-opacity="0.4" stroke-width="1.5" stroke-linecap="round" stroke-linejoin="round"/>
</g>
<defs>
<clipPath id="clip0_4_61">
<rect width="18" height="18" fill="white"/>
</clipPath>
</defs>
</svg>
