<svg preserveAspectRatio="none" width="100%" height="100%" overflow="visible" style="display: block;" viewBox="0 0 18 18" fill="none" xmlns="http://www.w3.org/2000/svg">
<g id="Icon" clip-path="url(#clip0_4_86)">
<path id="Vector" d="M7.45275 11.625C7.38579 11.3654 7.2505 11.1286 7.06096 10.939C6.87142 10.7495 6.63455 10.6142 6.375 10.5472L1.77375 9.36075C1.69525 9.33847 1.62616 9.29119 1.57696 9.22608C1.52776 9.16098 1.50114 9.0816 1.50114 9C1.50114 8.9184 1.52776 8.83902 1.57696 8.77392C1.62616 8.70881 1.69525 8.66153 1.77375 8.63925L6.375 7.452C6.63446 7.3851 6.87127 7.24993 7.0608 7.06053C7.25033 6.87113 7.38567 6.63442 7.45275 6.375L8.63925 1.77375C8.66131 1.69494 8.70854 1.62551 8.77374 1.57605C8.83894 1.52659 8.91854 1.49981 9.00037 1.49981C9.08221 1.49981 9.16181 1.52659 9.22701 1.57605C9.29221 1.62551 9.33944 1.69494 9.3615 1.77375L10.5472 6.375C10.6142 6.63455 10.7495 6.87142 10.939 7.06096C11.1286 7.2505 11.3654 7.38579 11.625 7.45275L16.2263 8.6385C16.3054 8.66032 16.3752 8.70751 16.4249 8.77281C16.4746 8.83811 16.5015 8.91792 16.5015 9C16.5015 9.08208 16.4746 9.16189 16.4249 9.22719C16.3752 9.29249 16.3054 9.33968 16.2263 9.3615L11.625 10.5472C11.3654 10.6142 11.1286 10.7495 10.939 10.939C10.7495 11.1286 10.6142 11.3654 10.5472 11.625L9.36075 16.2263C9.33869 16.3051 9.29146 16.3745 9.22626 16.424C9.16106 16.4734 9.08146 16.5002 8.99962 16.5002C8.91779 16.5002 8.83819 16.4734 8.77299 16.424C8.70779 16.3745 8.66056 16.3051 8.6385 16.2263L7.45275 11.625Z" stroke="var(--stroke-0, white)" stroke-opacity="0.4" stroke-width="1.5" stroke-linecap="round" stroke-linejoin="round"/>
<path id="Vector_2" d="M15 2.25V5.25" stroke="var(--stroke-0, white)" stroke-opacity="0.4" stroke-width="1.5" stroke-linecap="round" stroke-linejoin="round"/>
<path id="Vector_3" d="M16.5 3.75H13.5" stroke="var(--stroke-0, white)" stroke-opacity="0.4" stroke-width="1.5" stroke-linecap="round" stroke-linejoin="round"/>
<path id="Vector_4" d="M3 12.75V14.25" stroke="var(--stroke-0, white)" stroke-opacity="0.4" stroke-width="1.5" stroke-linecap="round" stroke-linejoin="round"/>
<path id="Vector_5" d="M3.75 13.5H2.25" stroke="var(--stroke-0, white)" stroke-opacity="0.4" stroke-width="1.5" stroke-linecap="round" stroke-linejoin="round"/>
</g>
<defs>
<clipPath id="clip0_4_86">
<rect width="18" height="18" fill="white"/>
</clipPath>
</defs>
</svg>
