<svg preserveAspectRatio="none" width="100%" height="100%" overflow="visible" style="display: block;" viewBox="0 0 18 18" fill="none" xmlns="http://www.w3.org/2000/svg">
<g id="Icon" clip-path="url(#clip0_4_105)">
<path id="Vector" d="M10.9665 13.4227L2.9565 11.238" stroke="var(--stroke-0, white)" stroke-opacity="0.4" stroke-width="1.5" stroke-linecap="round" stroke-linejoin="round"/>
<path id="Vector_2" d="M13.782 1.9665C13.9298 1.81866 14.1053 1.70139 14.2985 1.62139C14.4917 1.54138 14.6987 1.5002 14.9078 1.5002C15.1168 1.5002 15.3238 1.54138 15.517 1.62139C15.7102 1.70139 15.8857 1.81866 16.0335 1.9665C16.1813 2.11434 16.2986 2.28984 16.3786 2.483C16.4586 2.67616 16.4998 2.88318 16.4998 3.09225C16.4998 3.30132 16.4586 3.50834 16.3786 3.7015C16.2986 3.89466 16.1813 4.07016 16.0335 4.218L13.02 7.23225C12.9497 7.30257 12.9102 7.39794 12.9102 7.49738C12.9102 7.59681 12.9497 7.69218 13.02 7.7625L13.728 8.4705C14.0669 8.80946 14.2573 9.26917 14.2573 9.7485C14.2573 10.2278 14.0669 10.6875 13.728 11.0265L13.02 11.7345C12.9497 11.8048 12.8543 11.8443 12.7549 11.8443C12.6554 11.8443 12.5601 11.8048 12.4897 11.7345L6.2655 5.511C6.1952 5.44068 6.1557 5.34531 6.1557 5.24588C6.1557 5.14644 6.1952 5.05107 6.2655 4.98075L6.9735 4.27275C7.31246 3.93384 7.77217 3.74344 8.2515 3.74344C8.73083 3.74344 9.19054 3.93384 9.5295 4.27275L10.2375 4.98075C10.3078 5.05105 10.4032 5.09054 10.5026 5.09054C10.6021 5.09054 10.6974 5.05105 10.7678 4.98075L13.782 1.9665Z" stroke="var(--stroke-0, white)" stroke-opacity="0.4" stroke-width="1.5" stroke-linecap="round" stroke-linejoin="round"/>
<path id="Vector_3" d="M6.75 6C5.397 8.0325 3.7725 8.595 1.81275 8.961C1.74774 8.97287 1.68694 9.00148 1.63635 9.044C1.58577 9.08653 1.54714 9.14151 1.52427 9.20351C1.50141 9.26552 1.4951 9.33241 1.50597 9.3976C1.51684 9.46279 1.54451 9.52402 1.58625 9.57525L7.07625 16.2375C7.18776 16.3559 7.33475 16.4349 7.49506 16.4625C7.65537 16.4901 7.82031 16.4648 7.965 16.3905C9.55125 15.3037 12 12.594 12 11.25" stroke="var(--stroke-0, white)" stroke-opacity="0.4" stroke-width="1.5" stroke-linecap="round" stroke-linejoin="round"/>
</g>
<defs>
<clipPath id="clip0_4_105">
<rect width="18" height="18" fill="white"/>
</clipPath>
</defs>
</svg>
