<svg preserveAspectRatio="none" width="100%" height="100%" overflow="visible" style="display: block;" viewBox="0 0 14 14" fill="none" xmlns="http://www.w3.org/2000/svg">
<g id="Icon">
<path id="Vector" d="M10.2083 11.0833H5.25C4.49275 11.0831 3.75048 10.8724 3.10612 10.4746C2.46176 10.0768 1.9407 9.50772 1.60117 8.83086C1.26165 8.154 1.11702 7.39605 1.18346 6.64173C1.2499 5.8874 1.52479 5.16641 1.97741 4.55932C2.43003 3.95223 3.04255 3.48296 3.74652 3.20395C4.45049 2.92494 5.21818 2.84718 5.9638 2.97935C6.70942 3.11153 7.4036 3.44844 7.96876 3.95244C8.53393 4.45643 8.94781 5.10765 9.16417 5.83333H10.2083C10.9045 5.83333 11.5722 6.1099 12.0645 6.60218C12.5568 7.09446 12.8333 7.76214 12.8333 8.45833C12.8333 9.15453 12.5568 9.82221 12.0645 10.3145C11.5722 10.8068 10.9045 11.0833 10.2083 11.0833Z" stroke="var(--stroke-0, white)" stroke-opacity="0.4" stroke-width="1.16667" stroke-linecap="round" stroke-linejoin="round"/>
</g>
</svg>
