<svg preserveAspectRatio="none" width="100%" height="100%" overflow="visible" style="display: block;" viewBox="0 0 8.4 8.925" fill="none" xmlns="http://www.w3.org/2000/svg">
<path id="Vector" d="M2.625 5.124C2.6249 5.31934 2.5703 5.51079 2.46735 5.6768C2.36441 5.84282 2.21719 5.97682 2.04225 6.06375L1.10775 6.53625C0.932813 6.62318 0.785595 6.75718 0.682647 6.9232C0.579699 7.08921 0.525104 7.28066 0.525 7.476V7.875C0.525 8.01424 0.580312 8.14778 0.678769 8.24623C0.777226 8.34469 0.910761 8.4 1.05 8.4H7.35C7.48924 8.4 7.62278 8.34469 7.72123 8.24623C7.81969 8.14778 7.875 8.01424 7.875 7.875V7.476C7.8749 7.28066 7.8203 7.08921 7.71735 6.9232C7.61441 6.75718 7.46719 6.62318 7.29225 6.53625L6.35775 6.06375C6.18281 5.97682 6.0356 5.84282 5.93265 5.6768C5.8297 5.51079 5.7751 5.31934 5.775 5.124V3.15C5.775 3.01076 5.83031 2.87723 5.92877 2.77877C6.02723 2.68031 6.16076 2.625 6.3 2.625C6.57848 2.625 6.84555 2.51438 7.04246 2.31746C7.23938 2.12055 7.35 1.85348 7.35 1.575C7.35 1.29652 7.23938 1.02945 7.04246 0.832538C6.84555 0.635625 6.57848 0.525 6.3 0.525H2.1C1.82152 0.525 1.55445 0.635625 1.35754 0.832538C1.16062 1.02945 1.05 1.29652 1.05 1.575C1.05 1.85348 1.16062 2.12055 1.35754 2.31746C1.55445 2.51438 1.82152 2.625 2.1 2.625C2.23924 2.625 2.37277 2.68031 2.47123 2.77877C2.56969 2.87723 2.625 3.01076 2.625 3.15V5.124Z" stroke="var(--stroke-0, #A1A1A1)" stroke-width="1.05" stroke-linecap="round" stroke-linejoin="round"/>
</svg>
