<svg preserveAspectRatio="none" width="100%" height="100%" overflow="visible" style="display: block;" viewBox="0 0 14.7 14.7" fill="none" xmlns="http://www.w3.org/2000/svg">
<g id="Icon" clip-path="url(#clip0_31_148)">
<path id="Vector" d="M6.08641 9.49375C6.03173 9.28178 5.92124 9.08834 5.76645 8.93355C5.61166 8.77875 5.41822 8.66827 5.20625 8.61359L1.44856 7.64461C1.38445 7.62642 1.32803 7.5878 1.28785 7.53463C1.24767 7.48147 1.22593 7.41664 1.22593 7.35C1.22593 7.28336 1.24767 7.21853 1.28785 7.16536C1.32803 7.1122 1.38445 7.07358 1.44856 7.05539L5.20625 6.0858C5.41814 6.03117 5.61154 5.92078 5.76632 5.7661C5.92111 5.61142 6.03163 5.41811 6.08641 5.20625L7.05539 1.44856C7.0734 1.3842 7.11197 1.3275 7.16522 1.2871C7.21847 1.24671 7.28347 1.22485 7.35031 1.22485C7.41714 1.22485 7.48214 1.24671 7.53539 1.2871C7.58864 1.3275 7.62721 1.3842 7.64522 1.44856L8.61359 5.20625C8.66827 5.41822 8.77875 5.61166 8.93355 5.76645C9.08834 5.92124 9.28178 6.03173 9.49375 6.08641L13.2514 7.05477C13.3161 7.0726 13.373 7.11113 13.4137 7.16446C13.4543 7.21779 13.4763 7.28297 13.4763 7.35C13.4763 7.41703 13.4543 7.48221 13.4137 7.53554C13.373 7.58887 13.3161 7.6274 13.2514 7.64522L9.49375 8.61359C9.28178 8.66827 9.08834 8.77875 8.93355 8.93355C8.77875 9.08834 8.66827 9.28178 8.61359 9.49375L7.64461 13.2514C7.6266 13.3158 7.58803 13.3725 7.53478 13.4129C7.48153 13.4533 7.41653 13.4752 7.34969 13.4752C7.28286 13.4752 7.21786 13.4533 7.16461 13.4129C7.11136 13.3725 7.07279 13.3158 7.05477 13.2514L6.08641 9.49375Z" stroke="var(--stroke-0, #737373)" stroke-width="1.225" stroke-linecap="round" stroke-linejoin="round"/>
<path id="Vector_2" d="M12.25 1.8375V4.2875" stroke="var(--stroke-0, #737373)" stroke-width="1.225" stroke-linecap="round" stroke-linejoin="round"/>
<path id="Vector_3" d="M13.475 3.0625H11.025" stroke="var(--stroke-0, #737373)" stroke-width="1.225" stroke-linecap="round" stroke-linejoin="round"/>
<path id="Vector_4" d="M2.45 10.4125V11.6375" stroke="var(--stroke-0, #737373)" stroke-width="1.225" stroke-linecap="round" stroke-linejoin="round"/>
<path id="Vector_5" d="M3.0625 11.025H1.8375" stroke="var(--stroke-0, #737373)" stroke-width="1.225" stroke-linecap="round" stroke-linejoin="round"/>
</g>
<defs>
<clipPath id="clip0_31_148">
<rect width="14.7" height="14.7" fill="white"/>
</clipPath>
</defs>
</svg>
