<svg preserveAspectRatio="none" width="100%" height="100%" overflow="visible" style="display: block;" viewBox="0 0 7.7 12.6042" fill="none" xmlns="http://www.w3.org/2000/svg">
<path id="Vector" d="M7 1.19279C6.99986 1.09529 6.97084 1.00001 6.9166 0.918987C6.86237 0.837962 6.78535 0.774819 6.69526 0.737526C6.60517 0.700233 6.50606 0.690461 6.41042 0.709444C6.31478 0.728427 6.22691 0.775314 6.1579 0.844187L3.7891 3.21229C3.69768 3.30425 3.58892 3.37716 3.46913 3.42678C3.34933 3.47641 3.22087 3.50177 3.0912 3.50139H1.4C1.21435 3.50139 1.0363 3.57514 0.905025 3.70641C0.77375 3.83769 0.7 4.01574 0.7 4.20139V8.40139C0.7 8.58704 0.77375 8.76509 0.905025 8.89636C1.0363 9.02764 1.21435 9.10139 1.4 9.10139H3.0912C3.22087 9.10101 3.34933 9.12637 3.46913 9.17599C3.58892 9.22562 3.69768 9.29852 3.7891 9.39049L6.1572 11.7593C6.22622 11.8284 6.31421 11.8756 6.41003 11.8947C6.50586 11.9138 6.60519 11.904 6.69545 11.8666C6.78571 11.8292 6.86283 11.7658 6.91705 11.6845C6.97127 11.6032 7.00014 11.5077 7 11.41V1.19279Z" stroke="var(--stroke-0, #A1A1A1)" stroke-width="1.4" stroke-linecap="round" stroke-linejoin="round"/>
</svg>
