<svg preserveAspectRatio="none" width="100%" height="100%" overflow="visible" style="display: block;" viewBox="0 0 14.7 14.7" fill="none" xmlns="http://www.w3.org/2000/svg">
<g id="Icon" opacity="0.5">
<path id="Vector" d="M7.35 6.125C7.68827 6.125 7.9625 5.85077 7.9625 5.5125C7.9625 5.17423 7.68827 4.9 7.35 4.9C7.01173 4.9 6.7375 5.17423 6.7375 5.5125C6.7375 5.85077 7.01173 6.125 7.35 6.125Z" stroke="var(--stroke-0, #A1A1A1)" stroke-width="1.225" stroke-linecap="round" stroke-linejoin="round"/>
<path id="Vector_2" d="M11.6375 6.125C11.9758 6.125 12.25 5.85077 12.25 5.5125C12.25 5.17423 11.9758 4.9 11.6375 4.9C11.2992 4.9 11.025 5.17423 11.025 5.5125C11.025 5.85077 11.2992 6.125 11.6375 6.125Z" stroke="var(--stroke-0, #A1A1A1)" stroke-width="1.225" stroke-linecap="round" stroke-linejoin="round"/>
<path id="Vector_3" d="M3.0625 6.125C3.40077 6.125 3.675 5.85077 3.675 5.5125C3.675 5.17423 3.40077 4.9 3.0625 4.9C2.72423 4.9 2.45 5.17423 2.45 5.5125C2.45 5.85077 2.72423 6.125 3.0625 6.125Z" stroke="var(--stroke-0, #A1A1A1)" stroke-width="1.225" stroke-linecap="round" stroke-linejoin="round"/>
<path id="Vector_4" d="M7.35 9.8C7.68827 9.8 7.9625 9.52577 7.9625 9.1875C7.9625 8.84923 7.68827 8.575 7.35 8.575C7.01173 8.575 6.7375 8.84923 6.7375 9.1875C6.7375 9.52577 7.01173 9.8 7.35 9.8Z" stroke="var(--stroke-0, #A1A1A1)" stroke-width="1.225" stroke-linecap="round" stroke-linejoin="round"/>
<path id="Vector_5" d="M11.6375 9.8C11.9758 9.8 12.25 9.52577 12.25 9.1875C12.25 8.84923 11.9758 8.575 11.6375 8.575C11.2992 8.575 11.025 8.84923 11.025 9.1875C11.025 9.52577 11.2992 9.8 11.6375 9.8Z" stroke="var(--stroke-0, #A1A1A1)" stroke-width="1.225" stroke-linecap="round" stroke-linejoin="round"/>
<path id="Vector_6" d="M3.0625 9.8C3.40077 9.8 3.675 9.52577 3.675 9.1875C3.675 8.84923 3.40077 8.575 3.0625 8.575C2.72423 8.575 2.45 8.84923 2.45 9.1875C2.45 9.52577 2.72423 9.8 3.0625 9.8Z" stroke="var(--stroke-0, #A1A1A1)" stroke-width="1.225" stroke-linecap="round" stroke-linejoin="round"/>
</g>
</svg>
