<svg preserveAspectRatio="none" width="100%" height="100%" overflow="visible" style="display: block;" viewBox="0 0 10.5 10.5" fill="none" xmlns="http://www.w3.org/2000/svg">
<g id="Icon" clip-path="url(#clip0_31_175)">
<path id="Vector" d="M4.34744 6.78125C4.30838 6.62984 4.22946 6.49167 4.1189 6.3811C4.00833 6.27054 3.87016 6.19162 3.71875 6.15256L1.03469 5.46044C0.988895 5.44744 0.948591 5.41986 0.919893 5.38188C0.891194 5.3439 0.875667 5.2976 0.875667 5.25C0.875667 5.2024 0.891194 5.1561 0.919893 5.11812C0.948591 5.08014 0.988895 5.05256 1.03469 5.03956L3.71875 4.347C3.8701 4.30798 4.00824 4.22913 4.1188 4.11864C4.22936 4.00816 4.30831 3.87008 4.34744 3.71875L5.03956 1.03469C5.05243 0.988714 5.07998 0.948212 5.11802 0.91936C5.15605 0.890508 5.20248 0.874891 5.25022 0.874891C5.29796 0.874891 5.34439 0.890508 5.38242 0.91936C5.42046 0.948212 5.44801 0.988714 5.46088 1.03469L6.15256 3.71875C6.19162 3.87016 6.27054 4.00833 6.38111 4.1189C6.49167 4.22946 6.62984 4.30838 6.78125 4.34744L9.46531 5.03912C9.51147 5.05186 9.55217 5.07938 9.58118 5.11747C9.61019 5.15556 9.6259 5.20212 9.6259 5.25C9.6259 5.29788 9.61019 5.34444 9.58118 5.38253C9.55217 5.42062 9.51147 5.44814 9.46531 5.46087L6.78125 6.15256C6.62984 6.19162 6.49167 6.27054 6.38111 6.3811C6.27054 6.49167 6.19162 6.62984 6.15256 6.78125L5.46044 9.46531C5.44757 9.51129 5.42002 9.55179 5.38199 9.58064C5.34395 9.60949 5.29752 9.62511 5.24978 9.62511C5.20204 9.62511 5.15561 9.60949 5.11758 9.58064C5.07954 9.55179 5.05199 9.51129 5.03913 9.46531L4.34744 6.78125Z" stroke="var(--stroke-0, white)" stroke-width="0.875" stroke-linecap="round" stroke-linejoin="round"/>
<path id="Vector_2" d="M8.75 1.3125V3.0625" stroke="var(--stroke-0, white)" stroke-width="0.875" stroke-linecap="round" stroke-linejoin="round"/>
<path id="Vector_3" d="M9.625 2.1875H7.875" stroke="var(--stroke-0, white)" stroke-width="0.875" stroke-linecap="round" stroke-linejoin="round"/>
<path id="Vector_4" d="M1.75 7.4375V8.3125" stroke="var(--stroke-0, white)" stroke-width="0.875" stroke-linecap="round" stroke-linejoin="round"/>
<path id="Vector_5" d="M2.1875 7.875H1.3125" stroke="var(--stroke-0, white)" stroke-width="0.875" stroke-linecap="round" stroke-linejoin="round"/>
</g>
<defs>
<clipPath id="clip0_31_175">
<rect width="10.5" height="10.5" fill="white"/>
</clipPath>
</defs>
</svg>
