<svg preserveAspectRatio="none" width="100%" height="100%" overflow="visible" style="display: block;" viewBox="0 0 15.4013 15.4013" fill="none" xmlns="http://www.w3.org/2000/svg">
<path id="Vector" d="M14.4472 1.84718L13.5512 0.951177C13.4724 0.871599 13.3787 0.808426 13.2753 0.765312C13.172 0.722199 13.0611 0.7 12.9492 0.7C12.8372 0.7 12.7264 0.722199 12.623 0.765312C12.5197 0.808426 12.4259 0.871599 12.3472 0.951177L0.951177 12.3472C0.871599 12.4259 0.808426 12.5197 0.765312 12.623C0.722199 12.7264 0.7 12.8372 0.7 12.9492C0.7 13.0611 0.722199 13.172 0.765312 13.2753C0.808426 13.3787 0.871599 13.4724 0.951177 13.5512L1.84718 14.4472C1.92545 14.5276 2.01905 14.5915 2.12245 14.6352C2.22585 14.6789 2.33694 14.7013 2.44918 14.7013C2.56141 14.7013 2.67251 14.6789 2.77591 14.6352C2.8793 14.5915 2.9729 14.5276 3.05118 14.4472L14.4472 3.05118C14.5276 2.9729 14.5915 2.8793 14.6352 2.77591C14.6789 2.67251 14.7013 2.56141 14.7013 2.44918C14.7013 2.33694 14.6789 2.22585 14.6352 2.12245C14.5915 2.01905 14.5276 1.92545 14.4472 1.84718Z" stroke="var(--stroke-0, #A1A1A1)" stroke-width="1.4" stroke-linecap="round" stroke-linejoin="round"/>
</svg>
