<svg preserveAspectRatio="none" width="100%" height="100%" overflow="visible" style="display: block;" viewBox="0 0 14.7 14.7" fill="none" xmlns="http://www.w3.org/2000/svg">
<g id="Icon" clip-path="url(#clip0_31_125)">
<path id="Vector" d="M7.85837 1.33525C7.69878 1.26245 7.52541 1.22478 7.35 1.22478C7.17459 1.22478 7.00122 1.26245 6.84162 1.33525L1.5925 3.724C1.48381 3.77192 1.3914 3.85042 1.32653 3.94992C1.26166 4.04943 1.22712 4.16565 1.22712 4.28444C1.22712 4.40322 1.26166 4.51945 1.32653 4.61895C1.3914 4.71846 1.48381 4.79695 1.5925 4.84487L6.84775 7.23975C7.00734 7.31255 7.18071 7.35022 7.35612 7.35022C7.53154 7.35022 7.70491 7.31255 7.8645 7.23975L13.1197 4.851C13.2284 4.80308 13.3208 4.72458 13.3857 4.62508C13.4506 4.52557 13.4851 4.40935 13.4851 4.29056C13.4851 4.17178 13.4506 4.05555 13.3857 3.95605C13.3208 3.85654 13.2284 3.77805 13.1197 3.73012L7.85837 1.33525Z" stroke="var(--stroke-0, #737373)" stroke-width="1.225" stroke-linecap="round" stroke-linejoin="round"/>
<path id="Vector_2" d="M1.225 7.35C1.22471 7.46715 1.25802 7.58193 1.32099 7.68072C1.38396 7.77951 1.47393 7.85817 1.58025 7.90737L6.84775 10.3022C7.00651 10.3741 7.17878 10.4113 7.35306 10.4113C7.52734 10.4113 7.69961 10.3741 7.85837 10.3022L13.1136 7.9135C13.222 7.86477 13.3139 7.78554 13.3781 7.68549C13.4423 7.58543 13.4759 7.46886 13.475 7.35" stroke="var(--stroke-0, #737373)" stroke-width="1.225" stroke-linecap="round" stroke-linejoin="round"/>
<path id="Vector_3" d="M1.225 10.4125C1.22471 10.5297 1.25802 10.6444 1.32099 10.7432C1.38396 10.842 1.47393 10.9207 1.58025 10.9699L6.84775 13.3648C7.00651 13.4366 7.17878 13.4738 7.35306 13.4738C7.52734 13.4738 7.69961 13.4366 7.85837 13.3648L13.1136 10.976C13.222 10.9273 13.3139 10.848 13.3781 10.748C13.4423 10.6479 13.4759 10.5314 13.475 10.4125" stroke="var(--stroke-0, #737373)" stroke-width="1.225" stroke-linecap="round" stroke-linejoin="round"/>
</g>
<defs>
<clipPath id="clip0_31_125">
<rect width="14.7" height="14.7" fill="white"/>
</clipPath>
</defs>
</svg>
